<?xml version="1.0" encoding="UTF-8"?>
<svg id="Layer_1" data-name="Layer 1" xmlns="http://www.w3.org/2000/svg" viewBox="0 0 650.04 804.48">
  <defs>
    <style>
      .cls-1 {
        fill: #fff;
      }
    </style>
  </defs>
  <path class="cls-1" d="M314.97,148.06c13.19,3.15,26.42-4.99,29.57-18.18,3.15-13.18-4.99-26.41-18.17-29.57-13.18-3.15-26.43,4.99-29.57,18.17-3.15,13.18,4.99,26.43,18.17,29.57Z"/>
  <path class="cls-1" d="M327.46,247.61c-6.12-1.46-12.26,2.32-13.72,8.43-1.46,6.12,2.32,12.26,8.43,13.72,6.12,1.46,12.26-2.31,13.72-8.43,1.46-6.12-2.31-12.26-8.43-13.72Z"/>
  <path class="cls-1" d="M627.42,333.73c-33.43-39.87-86.15-35.04-95.15-21.75-9,13.29,16.72,9.66,16.72,9.66,0,0,50.15,0,63.01,41.08,12.86,41.08-8.06,99.24-79.72,93.03-75.91-6.58-120.16-137.64-127.84-156.12l4.95-11.7c2.27-3.37,3.86-7.14,4.71-11.13,0,0,1.92-6.62,.68-6.83-.18-11.48-6.7-21.59-16.62-27.68C426.27,187.98,510.48-.73,322.22,0c-188.37,.73-104,187.18-75.22,241.83-10.47,6.13-17.4,16.65-17.4,28.61,0,8.57,3.6,16.37,9.47,22.37l3.09,7.31c-2.38,14.27-12.34,63.93-39.02,90.14-31.37,30.81-73.18,65.75-104.86,63.7-47.63-3.08-73.09-47.73-60.23-86.52,12.86-38.8,63.01-38.8,63.01-38.8,0,0,25.72,3.42,16.72-9.13-9-12.55-61.72-17.12-95.15,20.54-18.65,21-39.86,71.89,0,120.96,28.49,35.08,75.66,40.74,126.74,31.45-7.3,26.83-16.2,68.49-14.34,107.12-5.35,.73-10.6,.96-15.59,.63-.37-.21-.78-.35-1.23-.38-.43-.03-.84,.03-1.22,.17-44.85-4.61-53.72-48.05-53.72-48.05,0,0-.78-23.07-13.1-12.97-12.32,10.1-7.99,56.95,39.72,79.44,11.4,5.37,28.97,10.16,49.04,10.48,1.75,7.54,4.1,14.75,7.22,21.43,20.13,43.22,62.55,74.3,108.85,67.6,.3,.32,.57,.66,.87,.98,56.72,61.55,136.85-.04,95.23-.04-13.71,0-42.53,14.04-68.84-9.7,43.36-23.3,49.62-81.68,38.53-90.78-12.32-10.1-13.1,12.97-13.1,12.97,0,0,1.55,34.63-35.72,43.54-9.68-40.32,12.67-96.52,52.83-147.09,36.09,47.61,67.58,104.51,74.33,148.68-32.92-10.92-39.92-45.13-39.92-45.13,0,0-.78-23.07-13.1-12.97-12.09,9.91-3.56,78.31,51.09,96.11-.49,1.47-.97,2.95-1.59,4.34-14.45,32.65-48.04,69.25-83.89,56.98-42.03-14.37-41.28-4.61-37.8,2.92,14.42,31.15,102.93,43.82,138.02-19.32,2.83-5.09,21.68-35.28,22.6-41.17,39.73-1.72,68.47-29.86,86.2-67.92,3.16-6.78,5.53-14.11,7.29-21.77,16.81-1.24,31.36-5.48,41.26-10.14,47.71-22.49,52.04-69.34,39.72-79.44-12.32-10.1-13.1,12.97-13.1,12.97,0,0-8.93,43.79-54.24,48.11-3.18,.3-6.48,.35-9.84,.2,1.91-37.03-6.17-76.94-13.29-103.97,35.4,1.36,84.83-3.12,108.9-34.5,39.86-51.95,18.65-105.83,0-128.06Zm-138,254.22c-30.08-16.37-52.65-47.71-37.55-86.43,8.06-20.66,8.4-29.15,15.91-8.56,14.09,38.66,20.56,69.91,21.64,94.99Zm-83.75-329.52c15.9,19.27-7.35,37.93-14.23,28.57-6.89-9.36,14.23-28.57,14.23-28.57Zm-160.31-91.34l14.26-9.26c-2.44-4.43-4.43-9.12-5.87-14l-16.9,2.85-2.09-12.31,16.57-2.8c-.61-5.71-.55-11.54,.31-17.43l-16.59-3.96,1.29-5.38s.03-.03,.04-.05c.2-.33,.27-.7,.23-1.06l1.35-5.65,16.59,3.96c1.55-4.64,3.54-9.04,5.94-13.13l-14.37-10.08,7.17-10.23,14.49,10.16c2.98-3.45,6.26-6.59,9.82-9.38l-9.29-14.32,10.48-6.8,9.31,14.34c4.73-2.5,9.73-4.51,14.95-5.87l-2.71-16.05,12.32-2.08,2.71,16.06c5.43-.41,10.98-.14,16.56,.78l3.94-16.53,12.15,2.9-3.98,16.69c4.22,1.5,8.23,3.37,11.98,5.57l10.09-14.4,10.23,7.18-10.19,14.52c3.76,3.24,7.19,6.83,10.16,10.76l14.19-9.21,6.8,10.48-14.4,9.35c2.51,4.96,4.4,10.22,5.67,15.68l16.81-2.84,2.08,12.33-17.14,2.89c.22,4.44,.02,8.95-.65,13.48l16.59,3.96-2.9,12.16-16.59-3.96c-1.42,4.23-3.23,8.24-5.35,12.01l13.55,9.5-7.18,10.23-13.47-9.45c-3.18,3.83-6.73,7.31-10.61,10.35l9.29,14.31-10.48,6.8-9.3-14.33c-4.66,2.47-9.57,4.46-14.71,5.82l2.96,17.52-12.33,2.08-2.96-17.52c-4.72,.37-9.52,.29-14.37-.34l-3.98,16.68-12.15-2.9,3.94-16.53c-4.65-1.47-9.05-3.37-13.17-5.68l-9.48,13.51-10.24-7.17,9.42-13.43c-3.52-2.92-6.72-6.16-9.58-9.67l-14.44,9.38-6.81-10.48Zm111.48,96.25l7.7,1.84-1.35,5.64-7.7-1.84c-.66,1.96-1.5,3.82-2.48,5.57l6.29,4.41-3.33,4.75-6.25-4.39c-1.48,1.78-3.12,3.39-4.92,4.8l4.31,6.64-4.86,3.16-4.32-6.65c-2.16,1.14-4.44,2.07-6.83,2.7l1.37,8.13-5.72,.96-1.37-8.13c-2.19,.17-4.42,.13-6.67-.16l-1.85,7.74-5.64-1.35,1.83-7.67c-2.16-.68-4.2-1.56-6.11-2.64l-4.4,6.27-4.75-3.33,4.37-6.23c-1.63-1.35-3.12-2.86-4.45-4.49l-6.7,4.35-3.16-4.87,6.62-4.29c-1.13-2.06-2.06-4.23-2.72-6.5l-7.84,1.32-.97-5.71,7.69-1.3c-.28-2.65-.26-5.36,.14-8.09l-7.7-1.84,1.35-5.64,7.7,1.84c.72-2.15,1.64-4.19,2.76-6.09l-6.67-4.68,3.33-4.75,6.73,4.72c1.38-1.6,2.91-3.06,4.56-4.36l-4.31-6.64,4.86-3.16,4.32,6.65c2.2-1.16,4.52-2.09,6.94-2.73l-1.26-7.44,5.72-.97,1.26,7.46c2.52-.19,5.1-.06,7.68,.36l1.83-7.67,5.64,1.35-1.85,7.74c1.96,.69,3.82,1.56,5.56,2.59l4.69-6.68,4.75,3.33-4.73,6.74c1.75,1.5,3.33,3.17,4.71,4.99l6.58-4.27,3.15,4.86-6.68,4.34c1.16,2.3,2.04,4.74,2.63,7.28l7.8-1.32,.97,5.72-7.96,1.34c.1,2.06,0,4.15-.3,6.25Zm-116.95-4.63s22.02,18.17,15.6,27.85c-6.43,9.68-30.55-7.84-15.6-27.85Zm-40.81,227.4c1.26-3.45,5.63,8.79,8.21,15.4,13.72,35.19-3.67,64.27-29.52,81.58,1.65-24.24,8.1-60.75,21.31-96.98Zm36.11,192.81c-23.47-3.65-47.32-19.38-55.18-56.12,15-4.9,30.06-13.11,44-25.94,31.96-29.41,38.53-96.13,39.43-136.36,11,9.55,22.66,21.25,34.36,34.41-33.26,49.37-74.96,125.74-62.62,184.02Zm58.04-247.69c0-15.98,24.72-50.22,27.54-54.08,2.12-2.88,6.94-2.88,9.06,0,2.82,3.85,27.54,38.1,27.54,54.08,0,17.68-14.39,32.07-32.07,32.07s-32.07-14.38-32.07-32.07Zm147.66,245.6c-6.85-63.76-58.42-133.85-88.46-181.12,.11-.12,.23-.24,.34-.37,.29,.08,.6,.01,.83-.21,.24-.24,.3-.58,.19-.87,2.14-2.27,4.28-4.51,6.41-6.7,.08-.04,.16-.09,.23-.15,.07-.07,.12-.16,.16-.25,11.83-12.11,23.58-22.94,34.56-31.85h.48c.05,4.66,.18,9.77,.42,15.2-.04,.32-.02,.63,.04,.93,1.85,40.5,9.86,98.55,39.06,125.43,16.18,14.9,33.87,23.58,51.21,28.07-8.67,36.68-21.57,49.17-45.48,51.89Z"/>
</svg>